<?xml version="1.0" encoding="utf-8"?>
<!-- Generator: Adobe Illustrator 24.0.0, SVG Export Plug-In . SVG Version: 6.00 Build 0)  -->
<svg version="1.1" xmlns="http://www.w3.org/2000/svg" xmlns:xlink="http://www.w3.org/1999/xlink" x="0px" y="0px"
	 viewBox="0 0 130 72" style="enable-background:new 0 0 130 72;" xml:space="preserve">
<style type="text/css">
	.st0{fill:#940029;}
	.st1{fill:#7AFFFA;}
	.st2{fill:none;stroke:#000000;stroke-width:5;stroke-linecap:round;stroke-miterlimit:10;}
	.st3{fill:#666666;}
	.st4{fill:#CCCCCC;}
	.st5{fill:#4D4D4D;}
	.st6{fill:#B3B3B3;}
</style>
<g id="Background">
</g>
<g id="Content">
	<g>
		<path class="st1" d="M36.98,27.52c-0.85-2.29-2.06-4.28-3.62-5.98c-1.56-1.7-3.45-3.05-5.67-4.06c-2.22-1.01-4.7-1.51-7.43-1.51
			c-2.73,0-5.21,0.52-7.43,1.55c-2.22,1.03-4.11,2.45-5.67,4.24c-1.56,1.8-2.76,3.91-3.59,6.35c-0.83,2.44-1.24,5.03-1.24,7.78
			c0,2.95,0.41,5.65,1.24,8.08c0.83,2.43,2.02,4.54,3.59,6.31c1.56,1.77,3.45,3.14,5.67,4.1c2.22,0.96,4.7,1.44,7.43,1.44
			c2.73,0,5.14-0.37,7.21-1.11c2.07-0.74,3.82-1.62,5.23-2.66c1.42-1.03,2.48-2.09,3.18-3.17c0.71-1.08,1.09-1.97,1.13-2.66
			c0.05-0.54-0.13-1.01-0.55-1.4c-0.42-0.39-0.89-0.59-1.43-0.59h-5.86c-0.59,0-1.05,0.07-1.39,0.22c-0.34,0.15-0.78,0.42-1.32,0.81
			c-0.63,0.49-1.44,0.9-2.42,1.22c-0.98,0.32-2.25,0.48-3.81,0.48c-1.07,0-2.12-0.15-3.15-0.44c-1.03-0.29-1.93-0.74-2.71-1.33
			c-0.78-0.59-1.4-1.32-1.87-2.18c-0.46-0.86-0.7-1.86-0.7-2.99h24.45c0.54,0,1-0.2,1.39-0.59c0.39-0.39,0.59-0.86,0.59-1.4v-3.32
			C38.26,32.21,37.84,29.81,36.98,27.52z M11.84,31.62c0.1-0.74,0.33-1.51,0.7-2.32c0.37-0.81,0.89-1.55,1.57-2.21
			c0.68-0.66,1.52-1.21,2.53-1.62c1-0.42,2.21-0.63,3.62-0.63c1.56,0,2.84,0.21,3.84,0.63c1,0.42,1.81,0.96,2.42,1.62
			c0.61,0.66,1.05,1.4,1.32,2.21c0.27,0.81,0.45,1.59,0.55,2.32H11.84z"/>
		<path class="st1" d="M49.5,50.39l16.71,0.05c1.18,0,1.77,0.59,1.77,1.77v1.15c0,1.13-0.59,1.69-1.77,1.69L46.35,55
			c-1.13,0-1.69-0.56-1.69-1.69V2.9c0-1.13,0.65-1.69,1.69-1.69c1.4,0,3.16,1.09,3.15,4.71V50.39z"/>
		<path class="st1" d="M127.22,18.53c-0.31-0.31-0.67-0.46-1.17-0.46c-0.47,0-1.16-0.04-1.88,0.7c-0.83,0.87-0.82,1.89-0.82,2.36
			v1.84c-1.19-1.56-2.74-2.89-4.66-3.98c-1.92-1.09-4.35-1.64-7.29-1.64c-2.8,0-5.15,0.51-7.04,1.53c-1.9,1.02-3.45,2.35-4.66,3.98
			c-1.21,1.64-2.09,3.47-2.63,5.51c-0.55,2.04-0.84,4.1-0.89,6.19c-0.05,1.33-0.05,2.66,0,3.98c0.05,2.09,0.34,4.15,0.89,6.19
			c0.54,2.04,1.42,3.88,2.63,5.51c1.21,1.64,2.76,2.96,4.66,3.98c1.9,1.02,4.24,1.53,7.04,1.53c2.94,0,5.37-0.53,7.29-1.6
			c1.92-1.07,3.47-2.41,4.66-4.02v4.91c0,2.28-0.26,4.15-0.78,5.62c-0.52,1.47-1.28,2.64-2.28,3.52c-1,0.88-2.24,1.49-3.73,1.85
			c-1.49,0.36-3.21,0.53-5.16,0.53c-1.85,0-3.39-0.23-4.62-0.68c-1.23-0.45-2.23-1.02-2.99-1.71c-0.76-0.69-1.32-1.41-1.74-2.13
			c-0.36-0.61-0.57-1.1-0.75-1.56c-0.17-0.45-0.56-1.03-1.16-1.42c-0.86-0.55-1.67-0.53-1.97-0.49c-0.44,0.07-0.63,0.22-0.9,0.49
			c-0.24,0.24-0.42,0.69-0.38,1.17c0.05,0.71,0.27,1.66,0.68,2.85c0.4,1.18,1.16,2.33,2.28,3.45c1.11,1.11,2.62,2.09,4.52,2.92
			c1.9,0.83,4.36,1.24,7.4,1.24c3.18,0,5.78-0.43,7.82-1.28c2.04-0.85,3.66-2.02,4.87-3.49c1.21-1.47,2.05-3.2,2.53-5.19
			c0.47-1.99,0.71-4.13,0.71-6.4V19.71C127.68,19.23,127.53,18.84,127.22,18.53z M123.34,39.12c-0.1,1.47-0.36,2.94-0.78,4.41
			c-0.43,1.47-1.1,2.81-2.03,4.02s-2.1,2.19-3.52,2.95c-1.42,0.76-3.15,1.14-5.19,1.14c-2.09,0-3.84-0.36-5.26-1.07
			c-1.42-0.71-2.57-1.67-3.45-2.88c-0.88-1.21-1.52-2.61-1.92-4.2c-0.4-1.59-0.63-3.24-0.68-4.94c-0.05-1.33-0.05-2.66,0-3.98
			c0.05-1.71,0.27-3.34,0.68-4.91c0.4-1.56,1.04-2.95,1.92-4.16c0.88-1.21,2.03-2.18,3.45-2.92c1.42-0.73,3.18-1.1,5.26-1.1
			c2.04,0,3.77,0.38,5.19,1.14c1.42,0.76,2.6,1.74,3.52,2.95c0.92,1.21,1.6,2.55,2.03,4.02c0.43,1.47,0.69,2.94,0.78,4.41
			c0.05,0.71,0.07,1.56,0.07,2.56C123.41,37.56,123.39,38.41,123.34,39.12z"/>
		<g>
			<path class="st1" d="M84.8,17.35c0,0.47-0.15,0.85-0.46,1.13c-0.31,0.28-0.69,0.42-1.16,0.42H80.5c-1.03,0-1.55-0.52-1.55-1.55
				v-2.68c0-0.47,0.14-0.86,0.42-1.16c0.28-0.3,0.66-0.46,1.13-0.46h2.68c0.47,0,0.86,0.15,1.16,0.46c0.3,0.31,0.46,0.69,0.46,1.16
				V17.35z"/>
			<path class="st1" d="M85.63,43.86l-1.47,0c-0.18-1.46-0.44-6.13-0.49-7.64c2.46-1.14,6.06-9.14,6.06-14.56h-15.7
				c0,5.42,3.61,13.42,6.07,14.56c-0.06,1.51-0.32,6.17-0.5,7.64l-1.47,0.01c-0.95,0-1.42,0.56-1.42,1.69v1.15
				c0,1.18,0.47,1.77,1.42,1.77h7.5c0.95,0,1.42-0.56,1.42-1.69v-1.15C87.05,44.45,86.57,43.86,85.63,43.86z"/>
			<path class="st1" d="M89.43,50.44c0.91,0,1.37,0.59,1.37,1.77v1.15c0,1.13-0.46,1.69-1.37,1.69l-15.11-0.01
				c-0.91,0-1.37-0.59-1.37-1.77v-1.15c0-1.13,0.46-1.69,1.37-1.69L89.43,50.44z"/>
		</g>
	</g>
</g>
<g id="Guides">
</g>
</svg>
